<?xml version="1.0" encoding="utf-8"?>
<!-- Generator: Adobe Illustrator 16.0.0, SVG Export Plug-In . SVG Version: 6.00 Build 0)  -->
<!DOCTYPE svg PUBLIC "-//W3C//DTD SVG 1.1//EN" "http://www.w3.org/Graphics/SVG/1.1/DTD/svg11.dtd">
<svg version="1.1" id="Layer_1" xmlns="http://www.w3.org/2000/svg" xmlns:xlink="http://www.w3.org/1999/xlink" x="0px" y="0px"
	 width="32.413px" height="31.613px" viewBox="0 0 32.413 31.613" enable-background="new 0 0 32.413 31.613" xml:space="preserve">
<g id="github-github">
	<path fill="#EBEBEB" d="M16.205,0C7.257,0,0,7.255,0,16.206c0,7.162,4.644,13.236,11.082,15.379
		c0.811,0.15,1.108-0.352,1.108-0.779c0-0.387-0.017-1.663-0.022-3.018c-4.51,0.98-5.461-1.912-5.461-1.912
		c-0.736-1.873-1.798-2.372-1.798-2.372c-1.472-1.006,0.11-0.984,0.11-0.984c1.627,0.115,2.484,1.671,2.484,1.671
		c1.444,2.478,3.792,1.762,4.716,1.346c0.146-1.047,0.565-1.762,1.029-2.166c-3.601-0.409-7.384-1.8-7.384-8.01
		c0-1.77,0.633-3.216,1.668-4.351c-0.167-0.408-0.721-2.056,0.158-4.289c0,0,1.36-0.435,4.459,1.662
		c1.292-0.359,2.679-0.539,4.055-0.546c1.378,0.007,2.766,0.187,4.062,0.546c3.093-2.097,4.453-1.662,4.453-1.662
		c0.88,2.233,0.326,3.881,0.158,4.289c1.039,1.135,1.667,2.581,1.667,4.351c0,6.226-3.792,7.596-7.4,7.997
		c0.582,0.503,1.101,1.489,1.101,3.001c0,2.168-0.02,3.913-0.02,4.447c0,0.432,0.292,0.937,1.113,0.777
		c6.436-2.145,11.074-8.219,11.074-15.377C32.413,7.255,25.156,0,16.205,0z"/>
	<path fill="#EBEBEB" d="M6.139,23.27c-0.037,0.081-0.163,0.104-0.278,0.049c-0.118-0.052-0.185-0.162-0.146-0.243
		c0.036-0.083,0.161-0.106,0.28-0.05C6.111,23.079,6.18,23.188,6.139,23.27L6.139,23.27z"/>
	<path fill="#EBEBEB" d="M6.795,24.003c-0.077,0.07-0.228,0.036-0.331-0.076c-0.106-0.113-0.126-0.264-0.047-0.338
		c0.079-0.07,0.226-0.037,0.331,0.075C6.854,23.779,6.875,23.929,6.795,24.003L6.795,24.003z"/>
	<path fill="#EBEBEB" d="M7.433,24.935c-0.1,0.069-0.262,0.005-0.361-0.14c-0.1-0.144-0.1-0.316,0.002-0.387
		c0.102-0.068,0.26-0.006,0.362,0.137C7.533,24.691,7.533,24.865,7.433,24.935L7.433,24.935z"/>
	<path fill="#EBEBEB" d="M8.309,25.836c-0.088,0.099-0.277,0.073-0.417-0.062c-0.14-0.13-0.181-0.315-0.091-0.414
		c0.091-0.098,0.28-0.071,0.42,0.063C8.36,25.553,8.404,25.74,8.309,25.836L8.309,25.836z"/>
	<path fill="#EBEBEB" d="M9.517,26.361c-0.039,0.127-0.222,0.184-0.404,0.13c-0.185-0.057-0.304-0.204-0.268-0.332
		c0.038-0.129,0.223-0.188,0.406-0.131C9.436,26.084,9.555,26.231,9.517,26.361L9.517,26.361z"/>
	<path fill="#EBEBEB" d="M10.844,26.457c0.003,0.134-0.152,0.244-0.345,0.247c-0.194,0.005-0.351-0.104-0.353-0.235
		c0-0.135,0.152-0.244,0.346-0.247C10.686,26.218,10.844,26.325,10.844,26.457L10.844,26.457z"/>
	<path fill="#EBEBEB" d="M12.077,26.247c0.023,0.13-0.112,0.266-0.302,0.301c-0.188,0.033-0.363-0.047-0.388-0.176
		c-0.023-0.134,0.115-0.268,0.302-0.303C11.881,26.037,12.054,26.115,12.077,26.247L12.077,26.247z"/>
</g>
</svg>
