<?xml version="1.0" encoding="utf-8"?>
<!-- Generator: Adobe Illustrator 16.0.0, SVG Export Plug-In . SVG Version: 6.00 Build 0)  -->
<!DOCTYPE svg PUBLIC "-//W3C//DTD SVG 1.1//EN" "http://www.w3.org/Graphics/SVG/1.1/DTD/svg11.dtd">
<svg version="1.1" id="Layer_1" xmlns="http://www.w3.org/2000/svg" xmlns:xlink="http://www.w3.org/1999/xlink" x="0px" y="0px"
	 width="30.717px" height="30.716px" viewBox="0 0 30.717 30.716" enable-background="new 0 0 30.717 30.716" xml:space="preserve">
<path id="instagram-instagram" fill="#EBEBEB" d="M27.173,12.992h-2.674c0.194,0.757,0.31,1.547,0.31,2.363
	c0,5.221-4.231,9.451-9.45,9.451c-5.221,0-9.451-4.23-9.451-9.451c0-0.816,0.116-1.606,0.31-2.363H3.545v12.996
	c0,0.652,0.527,1.181,1.183,1.181h21.262c0.654,0,1.184-0.528,1.184-1.181V12.992L27.173,12.992z M27.173,4.724
	c0-0.652-0.529-1.181-1.184-1.181h-3.541c-0.655,0-1.183,0.528-1.183,1.181v3.545c0,0.652,0.527,1.182,1.183,1.182h3.541
	c0.654,0,1.184-0.529,1.184-1.182V4.724L27.173,4.724z M15.358,9.45c-3.263,0-5.907,2.645-5.907,5.905
	c0,3.264,2.645,5.909,5.907,5.909c3.262,0,5.907-2.646,5.907-5.909C21.266,12.095,18.62,9.45,15.358,9.45 M27.173,30.716H3.545
	C1.587,30.716,0,29.127,0,27.169V3.543C0,1.585,1.587,0,3.545,0h23.628c1.956,0,3.544,1.585,3.544,3.543v23.626
	C30.717,29.127,29.129,30.716,27.173,30.716"/>
</svg>
