<?xml version="1.0" encoding="utf-8"?>
<!-- Generator: Adobe Illustrator 16.0.0, SVG Export Plug-In . SVG Version: 6.00 Build 0)  -->
<!DOCTYPE svg PUBLIC "-//W3C//DTD SVG 1.1//EN" "http://www.w3.org/Graphics/SVG/1.1/DTD/svg11.dtd">
<svg version="1.1" id="Layer_1" xmlns="http://www.w3.org/2000/svg" xmlns:xlink="http://www.w3.org/1999/xlink" x="0px" y="0px"
	 width="32.413px" height="32.354px" viewBox="0 0 32.413 32.354" enable-background="new 0 0 32.413 32.354" xml:space="preserve">
<g id="linkedin-linkedin">
	<path fill="#EBEBEB" d="M0.534,10.743h6.723v21.611H0.534V10.743z M3.896,0c2.148,0,3.893,1.745,3.893,3.895
		c0,2.151-1.744,3.896-3.893,3.896C1.74,7.791,0,6.046,0,3.895C0,1.745,1.74,0,3.896,0"/>
	<path fill="#EBEBEB" d="M11.47,10.743h6.438v2.954h0.095c0.893-1.698,3.085-3.49,6.354-3.49c6.801,0,8.058,4.475,8.058,10.295
		v11.853h-6.718v-10.51c0-2.506-0.041-5.729-3.488-5.729c-3.495,0-4.029,2.731-4.029,5.551v10.688H11.47V10.743z"/>
</g>
</svg>
