<?xml version="1.0" encoding="utf-8"?>
<!-- Generator: Adobe Illustrator 16.0.0, SVG Export Plug-In . SVG Version: 6.00 Build 0)  -->
<!DOCTYPE svg PUBLIC "-//W3C//DTD SVG 1.1//EN" "http://www.w3.org/Graphics/SVG/1.1/DTD/svg11.dtd">
<svg version="1.1" id="Layer_1" xmlns="http://www.w3.org/2000/svg" xmlns:xlink="http://www.w3.org/1999/xlink" x="0px" y="0px"
	 width="32.415px" height="26.341px" viewBox="0 0 32.415 26.341" enable-background="new 0 0 32.415 26.341" xml:space="preserve">
<path id="twitter-twitter" fill="#EBEBEB" d="M32.415,3.118c-1.193,0.528-2.475,0.886-3.82,1.046
	c1.372-0.822,2.427-2.126,2.924-3.679c-1.286,0.763-2.708,1.316-4.223,1.613C26.084,0.807,24.354,0,22.443,0
	c-3.675,0-6.652,2.977-6.652,6.648c0,0.522,0.06,1.029,0.173,1.517C10.438,7.888,5.536,5.239,2.257,1.217
	c-0.572,0.981-0.9,2.124-0.9,3.343c0,2.308,1.175,4.343,2.96,5.535c-1.09-0.033-2.118-0.334-3.013-0.831c0,0.027,0,0.055,0,0.083
	c0,3.223,2.29,5.909,5.334,6.521c-0.558,0.152-1.146,0.233-1.754,0.233c-0.427,0-0.844-0.042-1.251-0.119
	c0.847,2.642,3.303,4.564,6.213,4.617c-2.275,1.784-5.143,2.848-8.258,2.848c-0.539,0-1.065-0.031-1.588-0.093
	c2.944,1.888,6.438,2.987,10.194,2.987c12.233,0,18.921-10.133,18.921-18.921c0-0.288-0.006-0.574-0.019-0.859
	C30.395,5.622,31.522,4.451,32.415,3.118z"/>
</svg>
